<svg width="761" height="790" viewBox="0 0 761 790" fill="none" xmlns="http://www.w3.org/2000/svg">
<rect width="653.313" height="125.715" rx="14" transform="matrix(0.868869 -0.495041 0.515447 0.856922 0 323.417)" fill="#FF9900"/>
<rect width="653.313" height="125.715" rx="14" transform="matrix(0.868869 -0.495041 0.515447 0.856922 64.2786 476.97)" fill="#FF9900"/>
<rect width="653.313" height="125.715" rx="14" transform="matrix(0.868869 -0.495041 0.515447 0.856922 128.557 647.585)" fill="#FF9900"/>
<g style="mix-blend-mode:luminosity" filter="url(#filter0_d_5_18)">
<path d="M94.6553 131.533H83.3272C83.0668 131.533 82.9366 131.37 82.9366 131.044L83.1319 62.3433C83.1319 62.0829 83.2621 61.9527 83.5225 61.9527H95.7295C95.9899 61.9527 96.2178 62.0829 96.4131 62.3433L105.544 75.5269L114.626 62.3433C114.821 62.0829 115.065 61.9527 115.358 61.9527H127.614C127.907 61.9527 128.054 62.0829 128.054 62.3433L128.249 131.044C128.249 131.37 128.119 131.533 127.858 131.533H116.53C116.27 131.533 116.14 131.37 116.14 131.044L116.042 80.0191L105.544 95.2535L95.1436 80.0191L95.0459 131.044C95.0459 131.37 94.9157 131.533 94.6553 131.533ZM181.13 132.509C177.582 132.509 174.31 131.598 171.315 129.775C168.353 127.952 165.961 125.527 164.138 122.5C162.347 119.44 161.452 116.087 161.452 112.441L161.55 80.7515C161.55 77.0406 162.445 73.704 164.235 70.7418C165.993 67.747 168.369 65.3544 171.364 63.564C174.359 61.7411 177.614 60.8297 181.13 60.8297C184.776 60.8297 188.047 61.7248 190.944 63.5152C193.874 65.3056 196.218 67.7144 197.976 70.7418C199.766 73.7366 200.661 77.0731 200.661 80.7515L200.759 112.441C200.759 116.087 199.88 119.423 198.122 122.451C196.332 125.511 193.955 127.952 190.993 129.775C188.031 131.598 184.743 132.509 181.13 132.509ZM181.13 120.449C183.148 120.449 184.906 119.635 186.403 118.007C187.901 116.347 188.649 114.492 188.649 112.441L188.552 80.7515C188.552 78.538 187.852 76.6662 186.452 75.1363C185.052 73.6063 183.278 72.8414 181.13 72.8414C179.079 72.8414 177.321 73.5901 175.856 75.0875C174.392 76.5849 173.659 78.4729 173.659 80.7515V112.441C173.659 114.622 174.392 116.51 175.856 118.105C177.321 119.668 179.079 120.449 181.13 120.449ZM252.81 132.509C249.261 132.509 245.99 131.598 242.995 129.775C240.033 127.952 237.64 125.527 235.817 122.5C234.027 119.44 233.132 116.087 233.132 112.441L233.23 80.7515C233.23 77.0406 234.125 73.704 235.915 70.7418C237.673 67.747 240.049 65.3544 243.044 63.564C246.039 61.7411 249.294 60.8297 252.81 60.8297C256.455 60.8297 259.727 61.7248 262.624 63.5152C265.554 65.3056 267.897 67.7144 269.655 70.7418C271.446 73.7366 272.341 77.0731 272.341 80.7515L272.439 112.441C272.439 116.087 271.56 119.423 269.802 122.451C268.011 125.511 265.635 127.952 262.673 129.775C259.711 131.598 256.423 132.509 252.81 132.509ZM252.81 120.449C254.828 120.449 256.586 119.635 258.083 118.007C259.58 116.347 260.329 114.492 260.329 112.441L260.231 80.7515C260.231 78.538 259.532 76.6662 258.132 75.1363C256.732 73.6063 254.958 72.8414 252.81 72.8414C250.759 72.8414 249.001 73.5901 247.536 75.0875C246.071 76.5849 245.339 78.4729 245.339 80.7515V112.441C245.339 114.622 246.071 116.51 247.536 118.105C249.001 119.668 250.759 120.449 252.81 120.449ZM317.702 131.533H306.374C306.114 131.533 305.983 131.37 305.983 131.044L306.081 62.3433C306.081 62.0829 306.244 61.9527 306.569 61.9527H317.702C318.028 61.9527 318.19 62.0829 318.19 62.3433L318.093 89.5406H333.083V62.3433C333.083 62.0829 333.213 61.9527 333.474 61.9527H344.606C344.932 61.9527 345.095 62.0829 345.095 62.3433L345.29 131.044C345.29 131.37 345.127 131.533 344.802 131.533H333.571C333.246 131.533 333.083 131.37 333.083 131.044V101.65H318.093V131.044C318.093 131.37 317.963 131.533 317.702 131.533ZM414.04 131.533H376.735C376.41 131.533 376.247 131.37 376.247 131.044L376.345 120.156L400.856 73.3297H377.663C377.37 73.3297 377.224 73.1994 377.224 72.939V62.441C377.224 62.1155 377.37 61.9527 377.663 61.9527H413.845C414.17 61.9527 414.333 62.1155 414.333 62.441V73.232L389.968 119.814H414.04C414.3 119.814 414.431 119.993 414.431 120.351L414.528 131.044C414.528 131.37 414.366 131.533 414.04 131.533ZM458.522 131.533H447.194C446.934 131.533 446.804 131.37 446.804 131.044L446.901 62.3433C446.901 62.0829 447.064 61.9527 447.39 61.9527H458.522C458.848 61.9527 459.011 62.0829 459.011 62.3433L458.913 89.5406H473.903V62.3433C473.903 62.0829 474.034 61.9527 474.294 61.9527H485.427C485.752 61.9527 485.915 62.0829 485.915 62.3433L486.11 131.044C486.11 131.37 485.948 131.533 485.622 131.533H474.392C474.066 131.533 473.903 131.37 473.903 131.044V101.65H458.913V131.044C458.913 131.37 458.783 131.533 458.522 131.533ZM516.872 131.044L529.274 62.3433C529.34 62.0829 529.502 61.9527 529.763 61.9527H544.265C544.525 61.9527 544.688 62.0829 544.753 62.3433L556.667 131.044C556.7 131.37 556.569 131.533 556.276 131.533H545.192C544.867 131.533 544.688 131.37 544.655 131.044L543.581 123.72H529.958L528.884 131.044C528.851 131.37 528.689 131.533 528.396 131.533H517.263C517.002 131.533 516.872 131.37 516.872 131.044ZM536.452 84.9507L531.96 113.027H541.579L537.478 84.9507L536.892 81.2398L536.452 84.9507ZM621.608 131.533H589.284C589.024 131.533 588.894 131.37 588.894 131.044L588.991 62.441C588.991 62.1155 589.154 61.9527 589.48 61.9527H600.612C600.938 61.9527 601.101 62.1155 601.101 62.441L601.003 119.228H621.608C621.934 119.228 622.097 119.391 622.097 119.716V131.044C622.097 131.37 621.934 131.533 621.608 131.533Z" fill="white"/>
</g>
<g style="mix-blend-mode:luminosity" filter="url(#filter1_d_5_18)">
<path d="M94.2153 275.313H82.8872C82.6268 275.313 82.4966 275.15 82.4966 274.824L82.6919 206.123C82.6919 205.863 82.8221 205.733 83.0825 205.733H95.2895C95.5499 205.733 95.7778 205.863 95.9731 206.123L105.104 219.307L114.186 206.123C114.381 205.863 114.625 205.733 114.918 205.733H127.174C127.467 205.733 127.614 205.863 127.614 206.123L127.809 274.824C127.809 275.15 127.679 275.313 127.418 275.313H116.09C115.83 275.313 115.7 275.15 115.7 274.824L115.602 223.799L105.104 239.033L94.7036 223.799L94.6059 274.824C94.6059 275.15 94.4757 275.313 94.2153 275.313ZM180.69 276.289C177.142 276.289 173.87 275.378 170.875 273.555C167.913 271.732 165.521 269.307 163.698 266.279C161.907 263.22 161.012 259.867 161.012 256.221L161.11 224.531C161.11 220.82 162.005 217.484 163.795 214.522C165.553 211.527 167.929 209.134 170.924 207.344C173.919 205.521 177.174 204.61 180.69 204.61C184.336 204.61 187.607 205.505 190.504 207.295C193.434 209.085 195.778 211.494 197.536 214.522C199.326 217.516 200.221 220.853 200.221 224.531L200.319 256.221C200.319 259.867 199.44 263.203 197.682 266.231C195.892 269.291 193.515 271.732 190.553 273.555C187.591 275.378 184.303 276.289 180.69 276.289ZM180.69 264.229C182.708 264.229 184.466 263.415 185.963 261.787C187.461 260.127 188.209 258.272 188.209 256.221L188.112 224.531C188.112 222.318 187.412 220.446 186.012 218.916C184.612 217.386 182.838 216.621 180.69 216.621C178.639 216.621 176.881 217.37 175.416 218.867C173.952 220.365 173.219 222.253 173.219 224.531V256.221C173.219 258.402 173.952 260.29 175.416 261.885C176.881 263.447 178.639 264.229 180.69 264.229ZM252.37 276.289C248.821 276.289 245.55 275.378 242.555 273.555C239.593 271.732 237.2 269.307 235.377 266.279C233.587 263.22 232.692 259.867 232.692 256.221L232.79 224.531C232.79 220.82 233.685 217.484 235.475 214.522C237.233 211.527 239.609 209.134 242.604 207.344C245.599 205.521 248.854 204.61 252.37 204.61C256.015 204.61 259.287 205.505 262.184 207.295C265.114 209.085 267.457 211.494 269.215 214.522C271.006 217.516 271.901 220.853 271.901 224.531L271.999 256.221C271.999 259.867 271.12 263.203 269.362 266.231C267.571 269.291 265.195 271.732 262.233 273.555C259.271 275.378 255.983 276.289 252.37 276.289ZM252.37 264.229C254.388 264.229 256.146 263.415 257.643 261.787C259.14 260.127 259.889 258.272 259.889 256.221L259.791 224.531C259.791 222.318 259.092 220.446 257.692 218.916C256.292 217.386 254.518 216.621 252.37 216.621C250.319 216.621 248.561 217.37 247.096 218.867C245.631 220.365 244.899 222.253 244.899 224.531V256.221C244.899 258.402 245.631 260.29 247.096 261.885C248.561 263.447 250.319 264.229 252.37 264.229ZM317.262 275.313H305.934C305.674 275.313 305.543 275.15 305.543 274.824L305.641 206.123C305.641 205.863 305.804 205.733 306.129 205.733H317.262C317.588 205.733 317.75 205.863 317.75 206.123L317.653 233.32H332.643V206.123C332.643 205.863 332.773 205.733 333.034 205.733H344.166C344.492 205.733 344.655 205.863 344.655 206.123L344.85 274.824C344.85 275.15 344.687 275.313 344.362 275.313H333.131C332.806 275.313 332.643 275.15 332.643 274.824V245.43H317.653V274.824C317.653 275.15 317.523 275.313 317.262 275.313ZM413.6 275.313H376.295C375.97 275.313 375.807 275.15 375.807 274.824L375.905 263.936L400.416 217.11H377.223C376.93 217.11 376.784 216.979 376.784 216.719V206.221C376.784 205.895 376.93 205.733 377.223 205.733H413.405C413.73 205.733 413.893 205.895 413.893 206.221V217.012L389.528 263.594H413.6C413.86 263.594 413.991 263.773 413.991 264.131L414.088 274.824C414.088 275.15 413.926 275.313 413.6 275.313ZM458.082 275.313H446.754C446.494 275.313 446.364 275.15 446.364 274.824L446.461 206.123C446.461 205.863 446.624 205.733 446.95 205.733H458.082C458.408 205.733 458.571 205.863 458.571 206.123L458.473 233.32H473.463V206.123C473.463 205.863 473.594 205.733 473.854 205.733H484.987C485.312 205.733 485.475 205.863 485.475 206.123L485.67 274.824C485.67 275.15 485.508 275.313 485.182 275.313H473.952C473.626 275.313 473.463 275.15 473.463 274.824V245.43H458.473V274.824C458.473 275.15 458.343 275.313 458.082 275.313ZM516.432 274.824L528.834 206.123C528.9 205.863 529.062 205.733 529.323 205.733H543.825C544.085 205.733 544.248 205.863 544.313 206.123L556.227 274.824C556.26 275.15 556.129 275.313 555.836 275.313H544.752C544.427 275.313 544.248 275.15 544.215 274.824L543.141 267.5H529.518L528.444 274.824C528.411 275.15 528.249 275.313 527.956 275.313H516.823C516.562 275.313 516.432 275.15 516.432 274.824ZM536.012 228.731L531.52 256.807H541.139L537.038 228.731L536.452 225.02L536.012 228.731ZM621.168 275.313H588.844C588.584 275.313 588.454 275.15 588.454 274.824L588.551 206.221C588.551 205.895 588.714 205.733 589.04 205.733H600.172C600.498 205.733 600.661 205.895 600.661 206.221L600.563 263.008H621.168C621.494 263.008 621.657 263.171 621.657 263.496V274.824C621.657 275.15 621.494 275.313 621.168 275.313Z" fill="white"/>
</g>
<g style="mix-blend-mode:luminosity" filter="url(#filter2_d_5_18)">
<path d="M93.7753 419.093H82.4472C82.1868 419.093 82.0565 418.93 82.0565 418.604L82.2519 349.903C82.2519 349.643 82.3821 349.513 82.6425 349.513H94.8495C95.1099 349.513 95.3378 349.643 95.5331 349.903L104.664 363.087L113.746 349.903C113.941 349.643 114.185 349.513 114.478 349.513H126.734C127.027 349.513 127.174 349.643 127.174 349.903L127.369 418.604C127.369 418.93 127.239 419.093 126.978 419.093H115.65C115.39 419.093 115.26 418.93 115.26 418.604L115.162 367.579L104.664 382.813L94.2636 367.579L94.1659 418.604C94.1659 418.93 94.0357 419.093 93.7753 419.093ZM180.25 420.069C176.702 420.069 173.43 419.158 170.435 417.335C167.473 415.512 165.081 413.087 163.258 410.059C161.467 407 160.572 403.647 160.572 400.001L160.67 368.311C160.67 364.6 161.565 361.264 163.355 358.302C165.113 355.307 167.489 352.914 170.484 351.124C173.479 349.301 176.734 348.39 180.25 348.39C183.896 348.39 187.167 349.285 190.064 351.075C192.994 352.865 195.338 355.274 197.096 358.302C198.886 361.296 199.781 364.633 199.781 368.311L199.879 400.001C199.879 403.647 199 406.983 197.242 410.011C195.452 413.071 193.075 415.512 190.113 417.335C187.151 419.158 183.863 420.069 180.25 420.069ZM180.25 408.009C182.268 408.009 184.026 407.195 185.523 405.567C187.021 403.907 187.769 402.052 187.769 400.001L187.672 368.311C187.672 366.098 186.972 364.226 185.572 362.696C184.172 361.166 182.398 360.401 180.25 360.401C178.199 360.401 176.441 361.15 174.976 362.647C173.512 364.145 172.779 366.033 172.779 368.311V400.001C172.779 402.182 173.512 404.07 174.976 405.665C176.441 407.227 178.199 408.009 180.25 408.009ZM251.93 420.069C248.381 420.069 245.11 419.158 242.115 417.335C239.153 415.512 236.76 413.087 234.937 410.059C233.147 407 232.252 403.647 232.252 400.001L232.35 368.311C232.35 364.6 233.245 361.264 235.035 358.302C236.793 355.307 239.169 352.914 242.164 351.124C245.159 349.301 248.414 348.39 251.93 348.39C255.575 348.39 258.847 349.285 261.744 351.075C264.674 352.865 267.017 355.274 268.775 358.302C270.566 361.296 271.461 364.633 271.461 368.311L271.559 400.001C271.559 403.647 270.68 406.983 268.922 410.011C267.131 413.071 264.755 415.512 261.793 417.335C258.831 419.158 255.543 420.069 251.93 420.069ZM251.93 408.009C253.948 408.009 255.706 407.195 257.203 405.567C258.7 403.907 259.449 402.052 259.449 400.001L259.351 368.311C259.351 366.098 258.652 364.226 257.252 362.696C255.852 361.166 254.078 360.401 251.93 360.401C249.879 360.401 248.121 361.15 246.656 362.647C245.191 364.145 244.459 366.033 244.459 368.311V400.001C244.459 402.182 245.191 404.07 246.656 405.665C248.121 407.227 249.879 408.009 251.93 408.009ZM316.822 419.093H305.494C305.234 419.093 305.103 418.93 305.103 418.604L305.201 349.903C305.201 349.643 305.364 349.513 305.689 349.513H316.822C317.148 349.513 317.31 349.643 317.31 349.903L317.213 377.1H332.203V349.903C332.203 349.643 332.333 349.513 332.594 349.513H343.726C344.052 349.513 344.215 349.643 344.215 349.903L344.41 418.604C344.41 418.93 344.247 419.093 343.922 419.093H332.691C332.366 419.093 332.203 418.93 332.203 418.604V389.21H317.213V418.604C317.213 418.93 317.083 419.093 316.822 419.093ZM413.16 419.093H375.855C375.53 419.093 375.367 418.93 375.367 418.604L375.465 407.716L399.976 360.89H376.783C376.49 360.89 376.344 360.759 376.344 360.499V350.001C376.344 349.675 376.49 349.513 376.783 349.513H412.965C413.29 349.513 413.453 349.675 413.453 350.001V360.792L389.088 407.374H413.16C413.42 407.374 413.551 407.553 413.551 407.911L413.648 418.604C413.648 418.93 413.486 419.093 413.16 419.093ZM457.642 419.093H446.314C446.054 419.093 445.924 418.93 445.924 418.604L446.021 349.903C446.021 349.643 446.184 349.513 446.51 349.513H457.642C457.968 349.513 458.131 349.643 458.131 349.903L458.033 377.1H473.023V349.903C473.023 349.643 473.154 349.513 473.414 349.513H484.547C484.872 349.513 485.035 349.643 485.035 349.903L485.23 418.604C485.23 418.93 485.068 419.093 484.742 419.093H473.512C473.186 419.093 473.023 418.93 473.023 418.604V389.21H458.033V418.604C458.033 418.93 457.903 419.093 457.642 419.093ZM515.992 418.604L528.394 349.903C528.46 349.643 528.622 349.513 528.883 349.513H543.385C543.645 349.513 543.808 349.643 543.873 349.903L555.787 418.604C555.82 418.93 555.689 419.093 555.396 419.093H544.312C543.987 419.093 543.808 418.93 543.775 418.604L542.701 411.28H529.078L528.004 418.604C527.971 418.93 527.809 419.093 527.516 419.093H516.383C516.122 419.093 515.992 418.93 515.992 418.604ZM535.572 372.511L531.08 400.587H540.699L536.598 372.511L536.012 368.8L535.572 372.511ZM620.728 419.093H588.404C588.144 419.093 588.014 418.93 588.014 418.604L588.111 350.001C588.111 349.675 588.274 349.513 588.6 349.513H599.732C600.058 349.513 600.221 349.675 600.221 350.001L600.123 406.788H620.728C621.054 406.788 621.217 406.951 621.217 407.276V418.604C621.217 418.93 621.054 419.093 620.728 419.093Z" fill="white"/>
</g>
<g style="mix-blend-mode:luminosity" filter="url(#filter3_d_5_18)">
<path d="M93.3353 562.873H82.0072C81.7468 562.873 81.6165 562.71 81.6165 562.384L81.8119 493.683C81.8119 493.423 81.9421 493.293 82.2025 493.293H94.4095C94.6699 493.293 94.8978 493.423 95.0931 493.683L104.224 506.867L113.306 493.683C113.501 493.423 113.745 493.293 114.038 493.293H126.294C126.587 493.293 126.734 493.423 126.734 493.683L126.929 562.384C126.929 562.71 126.799 562.873 126.538 562.873H115.21C114.95 562.873 114.82 562.71 114.82 562.384L114.722 511.359L104.224 526.593L93.8236 511.359L93.7259 562.384C93.7259 562.71 93.5957 562.873 93.3353 562.873ZM179.81 563.849C176.262 563.849 172.99 562.938 169.995 561.115C167.033 559.292 164.641 556.867 162.818 553.839C161.027 550.78 160.132 547.427 160.132 543.781L160.23 512.091C160.23 508.38 161.125 505.044 162.915 502.082C164.673 499.087 167.049 496.694 170.044 494.904C173.039 493.081 176.294 492.169 179.81 492.169C183.456 492.169 186.727 493.065 189.624 494.855C192.554 496.645 194.898 499.054 196.656 502.082C198.446 505.076 199.341 508.413 199.341 512.091L199.439 543.781C199.439 547.427 198.56 550.763 196.802 553.791C195.012 556.85 192.635 559.292 189.673 561.115C186.711 562.938 183.423 563.849 179.81 563.849ZM179.81 551.789C181.828 551.789 183.586 550.975 185.083 549.347C186.581 547.687 187.329 545.832 187.329 543.781L187.232 512.091C187.232 509.878 186.532 508.006 185.132 506.476C183.732 504.946 181.958 504.181 179.81 504.181C177.759 504.181 176.001 504.93 174.536 506.427C173.072 507.925 172.339 509.813 172.339 512.091V543.781C172.339 545.962 173.072 547.85 174.536 549.445C176.001 551.007 177.759 551.789 179.81 551.789ZM251.49 563.849C247.941 563.849 244.67 562.938 241.675 561.115C238.713 559.292 236.32 556.867 234.497 553.839C232.707 550.78 231.812 547.427 231.812 543.781L231.91 512.091C231.91 508.38 232.805 505.044 234.595 502.082C236.353 499.087 238.729 496.694 241.724 494.904C244.719 493.081 247.974 492.169 251.49 492.169C255.135 492.169 258.407 493.065 261.304 494.855C264.234 496.645 266.577 499.054 268.335 502.082C270.126 505.076 271.021 508.413 271.021 512.091L271.118 543.781C271.118 547.427 270.24 550.763 268.482 553.791C266.691 556.85 264.315 559.292 261.353 561.115C258.391 562.938 255.103 563.849 251.49 563.849ZM251.49 551.789C253.508 551.789 255.266 550.975 256.763 549.347C258.26 547.687 259.009 545.832 259.009 543.781L258.911 512.091C258.911 509.878 258.212 508.006 256.812 506.476C255.412 504.946 253.638 504.181 251.49 504.181C249.439 504.181 247.681 504.93 246.216 506.427C244.751 507.925 244.019 509.813 244.019 512.091V543.781C244.019 545.962 244.751 547.85 246.216 549.445C247.681 551.007 249.439 551.789 251.49 551.789ZM316.382 562.873H305.054C304.794 562.873 304.663 562.71 304.663 562.384L304.761 493.683C304.761 493.423 304.924 493.293 305.249 493.293H316.382C316.708 493.293 316.87 493.423 316.87 493.683L316.773 520.88H331.763V493.683C331.763 493.423 331.893 493.293 332.154 493.293H343.286C343.612 493.293 343.775 493.423 343.775 493.683L343.97 562.384C343.97 562.71 343.807 562.873 343.482 562.873H332.251C331.926 562.873 331.763 562.71 331.763 562.384V532.99H316.773V562.384C316.773 562.71 316.643 562.873 316.382 562.873ZM412.72 562.873H375.415C375.09 562.873 374.927 562.71 374.927 562.384L375.025 551.496L399.536 504.669H376.343C376.05 504.669 375.904 504.539 375.904 504.279V493.781C375.904 493.455 376.05 493.293 376.343 493.293H412.525C412.85 493.293 413.013 493.455 413.013 493.781V504.572L388.648 551.154H412.72C412.98 551.154 413.111 551.333 413.111 551.691L413.208 562.384C413.208 562.71 413.046 562.873 412.72 562.873ZM457.202 562.873H445.874C445.614 562.873 445.484 562.71 445.484 562.384L445.581 493.683C445.581 493.423 445.744 493.293 446.07 493.293H457.202C457.528 493.293 457.691 493.423 457.691 493.683L457.593 520.88H472.583V493.683C472.583 493.423 472.714 493.293 472.974 493.293H484.107C484.432 493.293 484.595 493.423 484.595 493.683L484.79 562.384C484.79 562.71 484.628 562.873 484.302 562.873H473.072C472.746 562.873 472.583 562.71 472.583 562.384V532.99H457.593V562.384C457.593 562.71 457.463 562.873 457.202 562.873ZM515.552 562.384L527.954 493.683C528.02 493.423 528.182 493.293 528.443 493.293H542.945C543.205 493.293 543.368 493.423 543.433 493.683L555.347 562.384C555.38 562.71 555.249 562.873 554.956 562.873H543.872C543.547 562.873 543.368 562.71 543.335 562.384L542.261 555.06H528.638L527.564 562.384C527.531 562.71 527.368 562.873 527.076 562.873H515.943C515.682 562.873 515.552 562.71 515.552 562.384ZM535.132 516.291L530.64 544.367H540.259L536.158 516.291L535.572 512.58L535.132 516.291ZM620.288 562.873H587.964C587.704 562.873 587.574 562.71 587.574 562.384L587.671 493.781C587.671 493.455 587.834 493.293 588.16 493.293H599.292C599.618 493.293 599.781 493.455 599.781 493.781L599.683 550.568H620.288C620.614 550.568 620.777 550.731 620.777 551.056V562.384C620.777 562.71 620.614 562.873 620.288 562.873Z" fill="white"/>
</g>
<g style="mix-blend-mode:luminosity" filter="url(#filter4_d_5_18)">
<path d="M92.8953 706.653H81.5672C81.3068 706.653 81.1765 706.49 81.1765 706.164L81.3719 637.463C81.3719 637.203 81.5021 637.073 81.7625 637.073H93.9695C94.2299 637.073 94.4578 637.203 94.6531 637.463L103.784 650.647L112.866 637.463C113.061 637.203 113.305 637.073 113.598 637.073H125.854C126.147 637.073 126.294 637.203 126.294 637.463L126.489 706.164C126.489 706.49 126.359 706.653 126.098 706.653H114.77C114.51 706.653 114.38 706.49 114.38 706.164L114.282 655.139L103.784 670.373L93.3836 655.139L93.2859 706.164C93.2859 706.49 93.1557 706.653 92.8953 706.653ZM179.37 707.629C175.822 707.629 172.55 706.718 169.555 704.895C166.593 703.072 164.201 700.647 162.378 697.619C160.587 694.559 159.692 691.207 159.692 687.561L159.79 655.871C159.79 652.16 160.685 648.824 162.475 645.862C164.233 642.867 166.609 640.474 169.604 638.684C172.599 636.861 175.854 635.949 179.37 635.949C183.016 635.949 186.287 636.845 189.184 638.635C192.114 640.425 194.458 642.834 196.216 645.862C198.006 648.856 198.901 652.193 198.901 655.871L198.999 687.561C198.999 691.207 198.12 694.543 196.362 697.571C194.572 700.63 192.195 703.072 189.233 704.895C186.271 706.718 182.983 707.629 179.37 707.629ZM179.37 695.569C181.388 695.569 183.146 694.755 184.643 693.127C186.141 691.467 186.889 689.612 186.889 687.561L186.792 655.871C186.792 653.658 186.092 651.786 184.692 650.256C183.292 648.726 181.518 647.961 179.37 647.961C177.319 647.961 175.561 648.71 174.096 650.207C172.632 651.705 171.899 653.593 171.899 655.871V687.561C171.899 689.742 172.632 691.63 174.096 693.225C175.561 694.787 177.319 695.569 179.37 695.569ZM251.05 707.629C247.501 707.629 244.23 706.718 241.235 704.895C238.273 703.072 235.88 700.647 234.057 697.619C232.267 694.559 231.372 691.207 231.372 687.561L231.47 655.871C231.47 652.16 232.365 648.824 234.155 645.862C235.913 642.867 238.289 640.474 241.284 638.684C244.279 636.861 247.534 635.949 251.05 635.949C254.695 635.949 257.967 636.845 260.864 638.635C263.794 640.425 266.137 642.834 267.895 645.862C269.686 648.856 270.581 652.193 270.581 655.871L270.678 687.561C270.678 691.207 269.8 694.543 268.042 697.571C266.251 700.63 263.875 703.072 260.913 704.895C257.951 706.718 254.663 707.629 251.05 707.629ZM251.05 695.569C253.068 695.569 254.826 694.755 256.323 693.127C257.82 691.467 258.569 689.612 258.569 687.561L258.471 655.871C258.471 653.658 257.772 651.786 256.372 650.256C254.972 648.726 253.198 647.961 251.05 647.961C248.999 647.961 247.241 648.71 245.776 650.207C244.311 651.705 243.579 653.593 243.579 655.871V687.561C243.579 689.742 244.311 691.63 245.776 693.225C247.241 694.787 248.999 695.569 251.05 695.569ZM315.942 706.653H304.614C304.354 706.653 304.223 706.49 304.223 706.164L304.321 637.463C304.321 637.203 304.484 637.073 304.809 637.073H315.942C316.268 637.073 316.43 637.203 316.43 637.463L316.333 664.66H331.323V637.463C331.323 637.203 331.453 637.073 331.714 637.073H342.846C343.172 637.073 343.335 637.203 343.335 637.463L343.53 706.164C343.53 706.49 343.367 706.653 343.042 706.653H331.811C331.486 706.653 331.323 706.49 331.323 706.164V676.77H316.333V706.164C316.333 706.49 316.203 706.653 315.942 706.653ZM412.28 706.653H374.975C374.65 706.653 374.487 706.49 374.487 706.164L374.585 695.276L399.096 648.449H375.903C375.61 648.449 375.464 648.319 375.464 648.059V637.561C375.464 637.235 375.61 637.073 375.903 637.073H412.085C412.41 637.073 412.573 637.235 412.573 637.561V648.352L388.208 694.934H412.28C412.54 694.934 412.671 695.113 412.671 695.471L412.768 706.164C412.768 706.49 412.606 706.653 412.28 706.653ZM456.762 706.653H445.434C445.174 706.653 445.044 706.49 445.044 706.164L445.141 637.463C445.141 637.203 445.304 637.073 445.63 637.073H456.762C457.088 637.073 457.251 637.203 457.251 637.463L457.153 664.66H472.143V637.463C472.143 637.203 472.274 637.073 472.534 637.073H483.667C483.992 637.073 484.155 637.203 484.155 637.463L484.35 706.164C484.35 706.49 484.188 706.653 483.862 706.653H472.632C472.306 706.653 472.143 706.49 472.143 706.164V676.77H457.153V706.164C457.153 706.49 457.023 706.653 456.762 706.653ZM515.112 706.164L527.514 637.463C527.58 637.203 527.742 637.073 528.003 637.073H542.505C542.765 637.073 542.928 637.203 542.993 637.463L554.907 706.164C554.94 706.49 554.809 706.653 554.516 706.653H543.432C543.107 706.653 542.928 706.49 542.895 706.164L541.821 698.84H528.198L527.124 706.164C527.091 706.49 526.928 706.653 526.636 706.653H515.503C515.242 706.653 515.112 706.49 515.112 706.164ZM534.692 660.071L530.2 688.147H539.819L535.718 660.071L535.132 656.36L534.692 660.071ZM619.848 706.653H587.524C587.264 706.653 587.134 706.49 587.134 706.164L587.231 637.561C587.231 637.235 587.394 637.073 587.72 637.073H598.852C599.178 637.073 599.341 637.235 599.341 637.561L599.243 694.348H619.848C620.174 694.348 620.337 694.511 620.337 694.836V706.164C620.337 706.49 620.174 706.653 619.848 706.653Z" fill="white"/>
</g>
<defs>
<filter id="filter0_d_5_18" x="82.9366" y="60.8297" width="552.96" height="102.48" filterUnits="userSpaceOnUse" color-interpolation-filters="sRGB">
<feFlood flood-opacity="0" result="BackgroundImageFix"/>
<feColorMatrix in="SourceAlpha" type="matrix" values="0 0 0 0 0 0 0 0 0 0 0 0 0 0 0 0 0 0 127 0" result="hardAlpha"/>
<feOffset dx="7" dy="24"/>
<feGaussianBlur stdDeviation="3.4"/>
<feComposite in2="hardAlpha" operator="out"/>
<feColorMatrix type="matrix" values="0 0 0 0 0 0 0 0 0 0 0 0 0 0 0 0 0 0 1 0"/>
<feBlend mode="normal" in2="BackgroundImageFix" result="effect1_dropShadow_5_18"/>
<feBlend mode="normal" in="SourceGraphic" in2="effect1_dropShadow_5_18" result="shape"/>
</filter>
<filter id="filter1_d_5_18" x="82.4966" y="204.61" width="552.96" height="102.48" filterUnits="userSpaceOnUse" color-interpolation-filters="sRGB">
<feFlood flood-opacity="0" result="BackgroundImageFix"/>
<feColorMatrix in="SourceAlpha" type="matrix" values="0 0 0 0 0 0 0 0 0 0 0 0 0 0 0 0 0 0 127 0" result="hardAlpha"/>
<feOffset dx="7" dy="24"/>
<feGaussianBlur stdDeviation="3.4"/>
<feComposite in2="hardAlpha" operator="out"/>
<feColorMatrix type="matrix" values="0 0 0 0 0 0 0 0 0 0 0 0 0 0 0 0 0 0 1 0"/>
<feBlend mode="normal" in2="BackgroundImageFix" result="effect1_dropShadow_5_18"/>
<feBlend mode="normal" in="SourceGraphic" in2="effect1_dropShadow_5_18" result="shape"/>
</filter>
<filter id="filter2_d_5_18" x="82.0565" y="348.39" width="552.96" height="102.48" filterUnits="userSpaceOnUse" color-interpolation-filters="sRGB">
<feFlood flood-opacity="0" result="BackgroundImageFix"/>
<feColorMatrix in="SourceAlpha" type="matrix" values="0 0 0 0 0 0 0 0 0 0 0 0 0 0 0 0 0 0 127 0" result="hardAlpha"/>
<feOffset dx="7" dy="24"/>
<feGaussianBlur stdDeviation="3.4"/>
<feComposite in2="hardAlpha" operator="out"/>
<feColorMatrix type="matrix" values="0 0 0 0 0 0 0 0 0 0 0 0 0 0 0 0 0 0 1 0"/>
<feBlend mode="normal" in2="BackgroundImageFix" result="effect1_dropShadow_5_18"/>
<feBlend mode="normal" in="SourceGraphic" in2="effect1_dropShadow_5_18" result="shape"/>
</filter>
<filter id="filter3_d_5_18" x="81.6165" y="492.169" width="552.96" height="102.48" filterUnits="userSpaceOnUse" color-interpolation-filters="sRGB">
<feFlood flood-opacity="0" result="BackgroundImageFix"/>
<feColorMatrix in="SourceAlpha" type="matrix" values="0 0 0 0 0 0 0 0 0 0 0 0 0 0 0 0 0 0 127 0" result="hardAlpha"/>
<feOffset dx="7" dy="24"/>
<feGaussianBlur stdDeviation="3.4"/>
<feComposite in2="hardAlpha" operator="out"/>
<feColorMatrix type="matrix" values="0 0 0 0 0 0 0 0 0 0 0 0 0 0 0 0 0 0 1 0"/>
<feBlend mode="normal" in2="BackgroundImageFix" result="effect1_dropShadow_5_18"/>
<feBlend mode="normal" in="SourceGraphic" in2="effect1_dropShadow_5_18" result="shape"/>
</filter>
<filter id="filter4_d_5_18" x="81.1765" y="635.949" width="552.96" height="102.48" filterUnits="userSpaceOnUse" color-interpolation-filters="sRGB">
<feFlood flood-opacity="0" result="BackgroundImageFix"/>
<feColorMatrix in="SourceAlpha" type="matrix" values="0 0 0 0 0 0 0 0 0 0 0 0 0 0 0 0 0 0 127 0" result="hardAlpha"/>
<feOffset dx="7" dy="24"/>
<feGaussianBlur stdDeviation="3.4"/>
<feComposite in2="hardAlpha" operator="out"/>
<feColorMatrix type="matrix" values="0 0 0 0 0 0 0 0 0 0 0 0 0 0 0 0 0 0 1 0"/>
<feBlend mode="normal" in2="BackgroundImageFix" result="effect1_dropShadow_5_18"/>
<feBlend mode="normal" in="SourceGraphic" in2="effect1_dropShadow_5_18" result="shape"/>
</filter>
</defs>
</svg>
